<?xml version="1.0" standalone="no"?>
<svg width="317" height="350" viewBox="0 0 317 350" xmlns="http://www.w3.org/2000/svg" version="1.1"><path d="M 158 1.9591120572638583 C 153.325 1.9510448702131806 149.275 2.1720000936692268 149 2.4501236649439613 C 148.725 2.7282472362186954 145.8 3.1652992235320445 142.5 3.421350303418071 C 139.2 3.6774013833040975 132 4.603897096634613 126.5 5.480229666374774 C 121 6.356562236114934 112.675 8.232455283378968 108 9.648880882517071 C 103.325 11.065306481655174 95.1125 14.423755119099877 89.75 17.11210007683863 C 84.3875 19.800445034577383 79.775 22.45 79.5 23 C 79.225 23.55 77.2 25.125 75 26.5 C 72.8 27.875 70.2125 29.013996651206096 69.25 29.031103669346884 C 68.2875 29.048210687487668 64.8530018429388 31.860710687487668 61.61778187319731 35.281103669346884 C 58.38256190345583 38.7014966512061 54.81219058310505 42.85 53.68362338352891 44.5 C 52.55505618395277 46.15 50.25205434101398 49.138553999408664 48.5658415103316 51.141231109797026 C 46.87962867964922 53.14390822018539 44.6 55.870077049138544 43.5 57.19938406302626 C 42.4 58.52869107691397 40.675145251418186 60.04013707750531 39.666989447595974 60.55815295322923 C 38.54896486652467 61.13262217737969 37.5107453327621 63.25527460372638 37.00530455110563 66 C 36.549533661858156 68.475 35.88791556042106 71.85 35.535042103467624 73.5 C 35.18216864651419 75.15 32.71536621441316 78.75 30.053258921020884 81.5 C 27.391151627628606 84.25 24.472930280175333 87.85 23.56832259334694 89.5 C 22.66371490651855 91.15 20.630744438863847 94.3 19.05061044300315 96.5 C 17.470476447142456 98.7 16.362670644614646 100.8375 16.588819770719127 101.25 C 16.814968896823608 101.6625 16.325 102 15.5 102 C 14.675 102 14 102.45 14 103 C 14 103.55 15.350000000000001 104 17 104 C 18.65 104 21.125 103.55 22.5 103 C 23.875 102.45 24.986883220423437 102.3375 24.970851600940968 102.75 C 24.9548199814585 103.1625 22.2548199814585 105.4125 18.970851600940968 107.75 C 15.686883220423436 110.0875 13.225 112.225 13.5 112.5 C 13.775 112.775 15.350000000000001 112.325 17 111.5 C 18.65 110.675 19.990547683614594 110.3375 19.978994852476873 110.75 C 19.967442021339153 111.1625 19.09484543258139 112.4 18.039891321904065 113.5 C 16.98493721122674 114.6 13.562118194941418 119.55 10.433626841270012 124.5 C 7.305135487598607 129.45 4.133073070280308 135.75 3.384599247229346 138.5 C 2.636125424178384 141.25 2.008777575112341 145.3 1.9904929159714726 147.5 C 1.972208256830604 149.7 2.630492026669777 152.85 3.453345737836301 154.5 C 4.276199449002825 156.15 5.371895901087432 160.65 5.88822674246876 164.5 C 6.404557583850088 168.35 7.550220167874999 173.525 8.43414359585745 176 C 9.3180670238399 178.475 10.031989753492068 181.2875 10.020638550640044 182.25 C 10.00928734778802 183.2125 10.675 184 11.5 184 C 12.479059364986163 184 12.802031850555544 184.6077640741828 12.42996916691132 185.75 C 12.116452208712547 186.7125 11.553952208712547 188.76727980796005 11.17996916691132 190.31617735102236 C 10.69830460207225 192.31105138987232 10.937456457709015 193.39286154243436 12 194.02560991338822 C 13.144076466687514 194.70691142408427 13.43740188959238 196.53014696179804 13.236187251408879 201.70943256236586 C 13.020392075257526 207.26402271844304 13.1837457467828 208.13597231220854 14.133666630059082 206.5 C 14.77237730004181 205.4 15.478623088283701 204.275 15.703101715041058 204 C 15.927580341798414 203.725 16.52932387287315 204.175 17.040309561873798 205 C 17.551295250874446 205.825 17.976265199498563 207.2875 17.984687225482944 208.25 C 17.993109251467324 209.2125 16.875 211.125 15.5 212.5 C 13.899999999999999 214.1 13.18 215.72 13.5 217 C 13.775 218.1 14.45 219 15 219 C 15.55 219 15.732398341200323 219.5625 15.405329647111827 220.25 C 15.078260953023332 220.9375 15.608762630692276 223.75 16.584222264153922 226.5 C 17.55968189761557 229.25 19.12058392671147 232.625 20.052893439922585 234 C 20.9852029531337 235.375 22.70470127546476 238.6375 23.87400082288049 241.25 C 25.04330037029622 243.8625 26.5625 245.8875 27.25 245.75 C 27.9375 245.6125 28.3875 246.2875 28.25 247.25 C 28.096846846846848 248.32207207207207 28.96846846846847 249.38738738738738 30.5 250 C 31.875 250.55 33.19542467176239 251.7875 33.43427704836086 252.75 C 33.673129424959335 253.7125 36.06701674533176 256.525 38.754026649188475 259 C 41.44103655304519 261.475 44.505839798056684 264.85 45.56470052699179 266.5 C 46.6235612559269 268.15 48.50467393555448 270.2875 49.74495092616418 271.25 C 50.98522791677388 272.2125 51.99457801448694 274.0125 51.98795114330431 275.25 C 51.981324272121675 276.4875 51.418824272121675 278.9850731144751 50.73795114330431 280.80016247661126 C 49.694741534633536 283.5811778861421 49.73596432179917 284.24362064276426 51 285.0112403521001 C 51.825 285.51224382148274 54.8625 286.1646707070077 57.75 286.46107787548885 C 61.89844358522799 286.8869232146061 63.23110803035068 287.47209560633087 64.10145712291298 289.25 C 64.70725854051511 290.4875 64.93225854051511 292.5125 64.60145712291298 293.75 C 64.13107018093247 295.50967758820485 64.54480267977239 296.21792107190896 66.5 297 L 69 298 L 68.75 303.9954322061408 C 68.6125 307.2929199195182 68.8375 309.9929199195183 69.25 309.9954322061408 C 69.6625 309.99794449276334 71.0125 311.1717667613693 72.25 312.6039261363763 C 73.91042872765333 314.52554114149916 75.84397306569852 315.3771440904444 79.6290480721448 315.8539261363763 L 84.75809614428958 316.5 L 85.3790480721448 313.25 C 85.72057163246515 311.4625 86.5625 309.9965205873055 87.25 309.99226797178994 C 87.9375 309.9880153562744 89.4 310.597753913434 90.5 311.3472425432557 C 91.6 312.0967311730774 95.2 313.7078852294438 98.5 314.92758489073657 C 101.8 316.14728455202936 108.1 319.4347269399009 112.5 322.23301241934 C 116.9 325.03129789877914 121.9625 328.59862325510727 123.75 330.1604021000692 C 125.5375 331.72218094503114 129.3625 333.6520730397599 132.25 334.44905119946645 C 135.1375 335.246029359173 142 336.4188017666738 147.5 337.0552121050239 C 153.00070385381326 337.6917038869818 160.87447210964007 337.91372038170744 165 337.5486592743412 C 169.125 337.1836448791157 176.775 335.9657180685434 182 334.8421552508472 C 187.225 333.71859243315106 193.075 332.1365650696996 195 331.32653888762184 C 196.925 330.5165127055441 203.45 326.2313768863666 209.5 321.8040148450052 C 215.55 317.3766528036439 221.7743575710348 312.5720559011426 223.33190571341072 311.12713283944686 C 224.8894538557866 309.6822097777511 226.81301048283896 306.925 227.6064759957493 305 C 228.39994150865965 303.075 229.03808393762483 301.3875 229.0245702823386 301.25 C 229.01105662705237 301.1125 228.4375 300.98533236900425 227.75 300.9674052644539 C 227.0625 300.9494781599035 225.6 301.8981166927002 224.5 303.075490892891 C 223.4 304.25286509308177 220.3625 306.29253272407755 217.75 307.60808562843715 C 215.1375 308.9236385327967 212.4375 310.8354432983379 211.75 311.8565406629731 C 211.0625 312.87763802760827 209.375 314.06167615460487 208 314.4877365007433 C 206.625 314.9137968468818 204.375 316.0748056616949 203 317.0677560892169 C 201.625 318.060706516739 199.6 319.0280236019013 198.5 319.2173496117998 C 197.4 319.40667562169835 194.25 320.6227441383084 191.5 321.9197240931555 C 187.5708451653505 323.77282775134853 185.53623935118455 324.14603253318177 182 323.6622952598799 C 179.525 323.3237294467313 176.375 322.90041644988435 175 322.7215997113311 C 173.625 322.54278297277796 171.375 321.62879132289856 170 320.6905071560435 C 168.625 319.7522229891885 166.4875 318.9880153562744 165.25 318.99226797178994 C 163.81927009742688 318.9971846135534 161.63454983762185 317.39659401167177 159.25 314.5964907237927 C 156.82611720787656 311.75019996124485 154.88114530299094 310.33567493950983 153.75 310.5964907237927 C 152.33431728425793 310.9229142140603 151.87636539904636 310.0925673712999 151.35282869939232 306.25 C 150.99688448405809 303.6375 149.87188448405809 299.5875 148.85282869939232 297.25 C 147.83377291472652 294.9125 147.225 292.55 147.5 292 C 147.775 291.45 149.35 291 151 291 C 152.97787181642198 291 155.22923687098154 289.8926944677905 157.60787489494282 287.75 C 160.80279536803948 284.8719923528616 161.11755812815312 284.16810868080603 160.35787489494282 281.6003522543329 C 159.61969657409395 279.1052831987308 158.6628389537946 278.47667590911453 153.5 277.0950736645167 C 149.66438542481302 276.0686434864853 147.5 274.96651415730855 147.5 274.0398063820585 C 147.5 273.24250634098854 148.625 272.2772377178136 150 271.89476499722537 C 152.14029434165397 271.2994164883438 151.96044151248097 271.18501786304415 148.75 271.0996800253506 C 146.6875 271.0448560114078 143.9875 270.4819697944562 142.75 269.8488217654582 L 140.5 268.6976435309163 L 143 267.8089523192897 C 144.375 267.3201721528951 150.675 266.6320335751715 157 266.2797554799039 L 168.5 265.6392498521447 L 172.5 267.6996495460962 C 174.7 268.8328693777695 178.75 270.0907660813198 181.5 270.49497555398574 C 184.25 270.89918502665165 187.9625 271.8531739476409 189.75 272.6149509339619 C 191.5375 273.37672792028286 193.45 273.775 194 273.5 C 194.55 273.225 195 271.875 195 270.5 C 195 268.8723478756877 193.865947761606 267.1049027244664 191.75 265.4348041060225 C 189.83911844323825 263.926562406551 187.88194533389003 263.1375440807229 187 263.51988046958866 C 186.175 263.8775302112376 184.15 264.40432778901027 182.5 264.6905417535278 C 180.42010681032536 265.05132628418835 177.35308410924083 264.23504781369155 172.5 262.029073124006 C 167.18994704666144 259.6153827464479 164.65502647666926 258.98725593960035 162 259.42728293382277 C 160.075 259.7463200399765 157.0375 260.23069655965656 155.25 260.5036751997784 C 152.8071889776793 260.87672987443455 152 260.62745124107107 152 259.5 C 152 258.6666666666667 151.11111111111111 258 150 258 C 148.9 258 146.9875 257.48776828611926 145.75 256.8617073024872 C 144.5125 256.23564631885523 141.8125 255.7856463188552 139.75 255.86170730248722 C 136.5667667093451 255.97909874744113 135.96221555271032 255.66388278551128 135.75 253.77608752675485 C 135.59908863822972 252.43363288757354 136.6890636587567 250.28158035671763 138.5 248.3464727664161 C 140.15 246.5833365085146 142.625 243.71300609740987 144 241.96796074173886 C 146.07023077789026 239.34058139328462 147.10167691095364 238.8401007774988 150 239.05662722808609 C 151.925 239.20043915124808 155.3 238.56047354826072 157.5 237.63448144366976 C 159.7 236.70848933907877 162.2875 235.96191606237494 163.25 235.97542971766126 C 164.2125 235.98894337294757 165.225 236.45 165.5 237 C 165.775 237.55 167.575 238 169.5 238 C 171.72222222222223 238 173.18253968253967 237.45238095238096 173.5 236.5 C 173.775 235.675 174 233.65 174 232 C 174 230.13829058230937 173.146282063268 228.25376298294742 171.75 227.03326928470594 C 170.5125 225.9515673912942 168.2625 225.0515673912942 166.75 225.03326928470594 C 165.2375 225.01497117811766 164 224.55 164 224 L 164 223 L 162 224 C 160.5319778723269 224.73401106383656 159.53451936171396 224.607740319143 158.25 223.5252782070005 C 157.2875 222.7141812208508 156.05 222.05921762883224 155.5 222.0698035580704 C 154.95 222.08038948730854 153.9375 221.39401429415832 153.25 220.54452535106986 C 152.5625 219.69503640798143 151.55 219.225 151 219.5 C 150.45 219.775 150.225 220.45 150.5 221 C 150.775 221.55 150.55 222.225 150 222.5 C 149.45 222.775 148.6625 222.42802475715055 148.25 221.72894390477902 C 147.8375 221.02986305240748 146.2625 219.90486305240748 144.75 219.22894390477902 C 143.2375 218.55302475715055 141.1 218 140 218 C 138.9 218 137.2125 219.13879954699055 136.25 220.53066565997904 C 135.2875 221.9225317729675 133.2625 223.27253177296748 131.75 223.53066565997904 C 130.2375 223.78879954699056 128.55 223.775 128 223.5 C 127.35523193284493 223.17761596642245 127.44403991605617 221.8702138274698 128.25 219.8195816083251 C 128.9375 218.07035149290394 130.5125 216.04535149290393 131.75 215.3195816083251 C 132.9875 214.5938117237463 134.3375 214.2166322448744 134.75 214.48140498860982 C 135.1625 214.74617773234522 136.28452903238318 214.18367773234522 137.2433978497404 213.23140498860982 C 138.624642805223 211.85966163882262 138.97337636162686 209.8381744135488 138.92219523616677 203.5 C 138.88666498134407 199.1 139.33475433911434 193.7 139.91794936454522 191.5 C 140.50114438997608 189.3 141.9956855660842 186.04057487049727 143.23915197811885 184.2568330455495 C 144.48261839015348 182.47309122060173 145.8375 181.01059122060173 146.25 181.0068330455495 C 146.6625 181.00307487049727 147 180.1 147 179 C 147 177.88888888888889 146.33333333333334 177 145.5 177 C 144.41399151406696 177 144.13241794695247 176.2410155575439 144.4797850044738 174.25 C 144.74366675693437 172.7375 145.75616675693436 170.92985754364742 146.7297850044738 170.2330167636609 C 147.7034032520132 169.5361759836744 149.9625 168.9736759836744 151.75 168.9830167636609 C 154.33140337273994 168.99650617398885 155.41067507689814 169.66859662726006 156.99626193956226 172.25 C 158.09420600632149 174.0375 159.0017060063217 176.4 159.01292860622945 177.5 C 159.0241512061372 178.6 158.56707705540833 179.95 157.99720827127646 180.5 C 157.28858785747752 181.18391397886995 157.85790646964145 182.76434408452013 159.79835914194308 185.5 C 161.3588609049416 187.7 163.84261718286743 191.6375 165.31781753733384 194.25 C 166.9329911816335 197.11038512189702 168.69617390245898 198.99336977235777 169.75 198.9833333333339 C 170.7125 198.97416666666751 171.95 199.40096009053812 172.5 199.93176316415742 C 173.05 200.46256623777674 176.2 201.61158731143294 179.5 202.48514332783787 C 183.3038791494077 203.49208318136587 189.8922417011846 204.09378024698148 197.5 204.12903391460588 C 205.88604654660085 204.16789409996204 211.0058139389163 203.7025986823968 214.5 202.5840375324496 C 217.25 201.70370571594617 220.5125 200.31216152802995 221.75 199.49171711485803 C 222.9875 198.67127270168612 225.5189296482339 194.7375 227.37539921829756 190.75 C 229.23186878836123 186.7625 231.05392301198435 181.7 231.42440860412674 179.5 C 231.79489419626913 177.3 232.75096454803523 173.3625 233.54900938582918 170.75 C 234.34705422362313 168.1375 235.45 166 236 166 C 236.55 166 237.05331717828133 167.2375 237.11848261840294 168.75 L 237.23696523680587 171.5 L 237.11848261840294 172.75 C 237.04144383851212 173.56276457392278 237.6121295965081 173.74519136175164 238.75 173.27153478694981 C 239.81749224172913 172.8271742364923 240.23555478032316 172.92467534481673 239.82194304192683 173.52153478694981 C 239.4266132457394 174.09201260396222 241.09447998477637 174.80465364670255 243.82194304192683 175.23064265764654 C 246.39487436886708 175.63249611935214 249.5125 176.86999611935215 250.75 177.98064265764654 C 251.9875 179.09128919594093 253.77375818621482 181.2375 254.71946263603294 182.75 C 255.66516708585107 184.2625 256.9993589278587 188.2 257.6843333960499 191.5 C 258.40352552834776 194.96485036566423 258.94458450001684 205.21108013777126 258.964870760017 215.75 C 258.9869619134857 227.22658050667798 259.3711462736067 234 260 234 C 260.55 234 261 235.575 261 237.5 C 261 239.72222222222223 261.54761904761904 241.18253968253967 262.5 241.5 C 263.5 241.83333333333334 264 243.33333333333334 264 246 C 264 248.2 264.3375 249.8278359460118 264.75 249.6174132133595 C 265.1625 249.40699048070724 266.4 249.5775273163952 267.5 249.99638395933272 C 268.97605837140856 250.55843564499455 269.5 251.67846066948428 269.5 254.27176489251335 C 269.5 256.4056547634117 268.7145686493829 258.6259215264174 267.5 259.9253888820863 C 266.4 261.1022792060395 265.1625 262.05052184009645 264.75 262.0325947355461 C 264.3375 262.01466763099575 264.2565675980891 261.2125 264.57015021797565 260.25 C 264.9919102352392 258.95546391645405 264.4646875373139 259.1506627377915 262.54443602188246 261 C 261.11671059414454 262.375 259.96764299605576 263.05 259.9909524705741 262.5 C 260.0142619450924 261.95 259.4633333333344 262.0699999999997 258.76666666666733 262.76666666666597 C 258.0700000000003 263.46333333333223 256.6 264.0057969253508 255.5 263.9721413155961 C 254.4 263.93848570584134 252.97135749121384 264.4934857058417 252.3252388693641 265.20547464893014 C 251.67912024751436 265.9174635920185 249.94762005207642 269.875 248.47746065727978 274 C 247.0073012624831 278.125 244.72344377126927 283.4125 243.40222178791566 285.75 C 241.28961719359654 289.48761056161544 241.00427217241517 291.23576276316277 241.0354354157294 300.25 C 241.05671536671846 306.40540958524974 241.55605566120022 311.3398772924461 242.2854354157294 312.60246724960825 C 242.95344593707821 313.75882423689274 244.7375 316.12132423689275 246.25 317.85246724960825 C 247.7625 319.5836102623237 249.3375 320.8265620476641 249.75 320.6145823281424 C 250.1625 320.40260260862067 250.87281718426098 317.8151026086207 251.32848263169106 314.8645823281424 C 251.78414807912114 311.91406204766406 252.82644218449428 307.925 253.6446917547425 306 C 254.4629413249907 304.075 256.79012414072974 300.48982905867257 258.8162091230514 298.03295346371686 C 260.8422941053731 295.57607786876116 261.9375 293.88857786876116 261.25 294.28295346371686 C 260.5625 294.67732905867257 260.00689074853267 294.6625 260.01531277451704 294.25 C 260.0237348005015 293.8375 260.36123480050145 293.0171763181911 260.76531277451704 292.4270584848691 C 261.1693907485327 291.8369406515471 262.2875 291.0494406515471 263.25 290.6770584848691 C 264.2125 290.30467631819107 267.53831663196286 285.1625 270.6407036265841 279.25 C 273.7430906212054 273.3375 279.1343283637025 263.55 282.6212319432443 257.5 C 286.1081355227861 251.45 288.96981889082326 245.9375 288.9805283166602 245.25 C 288.99123774249705 244.5625 290.35 243.1 292 242 C 294.3809523809524 240.4126984126984 295 239.27777777777777 295 236.5 C 295 233.37359682692536 295.26473794210756 233.02668548763754 297.4801677385806 233.25 C 299.2649872462809 233.42990915291094 299.96589571717146 233.0093640703766 299.9801677385806 231.75 C 299.9932652894201 230.5942712868501 300.764063083093 230.015120078673 302.25 230.04452535106986 C 303.4875 230.0690142941583 305.0584301312338 229.5065142941583 305.7409558471862 228.79452535106986 C 306.66017248283055 227.83562802956982 306.88130677372044 223.22209035278834 306.5938761051122 211 C 306.38045653101904 201.925 306.5844963484086 193.825 307.0472979215334 193 C 307.5100994946582 192.175 308.0951616788917 191.725 308.3474361087189 192 C 308.5997105385461 192.275 309.4932035178187 194.075 310.332976062658 196 L 311.8598352350931 199.5 L 311.27266949253817 196 C 310.94972833413294 194.075 310.193765406237 192.212969020407 309.5927518749916 191.86215337868225 C 308.89807639471076 191.4566666271607 309.59286399910445 189.84650806016896 311.5 187.4421379834148 L 314.5 183.65996920946512 L 314.32862225860976 176.57998460473254 C 314.2343645008451 172.68599307212966 314.1218645008451 168.2625 314.07862225860976 166.75 C 314.0353800163744 165.2375 313.55 164 313 164 C 312.45 164 312.225 163.1 312.5 162 C 312.775 160.9 312.55 160 312 160 C 311.45 160 311.225 160.675 311.5 161.5 C 311.775 162.325 311.6625 163.0125 311.25 163.02777777777777 C 310.8375 163.04305555555555 310.1831388501505 162.70555555555555 309.7958641114455 162.27777777777777 C 309.4085893727405 161.85 309.48779530586313 160.6 309.97187729616235 159.5 C 310.52133532017683 158.2514432709173 310.29772420700067 154.30636609860153 309.3767262798968 149 C 308.56531123065145 144.325 307.00674916727644 136.225 305.91325502795235 131 C 304.76467580225165 125.51178910021846 302.30312828438025 118.12165128402657 300.08425932663164 113.5 C 297.9718058302294 109.1 295.95021684699213 103.7 295.5918393638822 101.5 C 295.2334618807722 99.3 294.05368905353555 96.0375 292.97012197002294 94.25 C 291.88655488651034 92.4625 290.2125 90.73419511671221 289.25 90.4093224815827 C 288.2875 90.0844498464532 286.4585629943933 89.29694984645319 285.1856955430962 88.6593224815827 C 283.9128280917991 88.02169511671222 282.6085523079632 86.375 282.28730491234967 85 C 281.96605751673616 83.625 280.1949945223429 80.8125 278.3516093692535 78.75 C 276.012386408147 76.13272419673325 274.9980096659369 74.01830569616452 274.99341079429735 71.75 C 274.9897867311609 69.9625 274.2022867311609 67.34153180828542 273.24341079429735 65.92562624063429 C 272.2845348574338 64.50972067298315 267.34980925580845 59.55972067298315 262.2773539017966 54.92562624063429 C 256.092914342987 49.275645131582145 249.3396210479416 44.376836365136526 241.77735390179657 40.05501788340312 L 230.5 33.610035766806234 L 222.8516383770671 33.05501788340312 L 215.2032767541342 32.5 L 208.8516383770671 26.115359672495856 C 204.64596313200414 21.88783250864404 200.3883763875079 18.76262956215573 196.25 16.865359672495856 C 192.10352343271254 14.96437619427913 189.41101343884048 12.98628158621543 188.25 10.98803446273784 C 187.2875 9.331453417243651 185.9375 7.98145341724365 185.25 7.988034462737839 C 184.5625 7.994615508232028 183.775 7.325 183.5 6.5 C 183.1934476077528 5.580342823258423 181.74259054960675 4.995812133642193 179.75 4.989175709106835 C 177.9625 4.983222349115594 174.25 4.30232277488433 171.5 3.4760655441484705 C 168.75 2.649808313412611 162.675 1.967179244314536 158 1.9591120572638583 Z M 71.25 31.0231798168681 L 72 31 L 71.25 33.15603384647191 C 70.8375 34.341852462031454 69.0375 36.591852462031454 67.25 38.15603384647191 C 65.4625 39.72021523091236 63.4375 40.98443656917294 62.75 40.9654145981621 C 62.0625 40.946392627151255 60.2625 41.84639262715125 58.75 42.9654145981621 C 57.2375 44.084436569172944 56 44.55 56 44 C 56 43.45 57.18402575843963 42.2125 58.63116835208807 41.25 C 60.078310945736504 40.2875 63.34081094573651 37.597930917590645 65.88116835208807 35.2731798168681 C 68.42152575843963 32.94842871614556 70.8375 31.03592871614556 71.25 31.0231798168681 Z M 188 90.07490297910786 C 188.825 90.55241167208831 190.4456274003911 91.74340296709923 191.60139422309132 92.72155030135434 C 192.75716104579155 93.69969763560945 194.77813466406246 97.875 196.0924467081378 102 C 197.40675875221316 106.125 199.72363135182206 111.1875 201.2410524850465 113.25 C 202.75847361827093 115.3125 205.6875 120.2276087409294 207.75 124.172463868732 C 209.8125 128.1173189965346 213.525 133.40686775819904 216 135.9270166724308 C 218.475 138.44716558666255 221.9625 142.41955684573315 223.75 144.7545528036988 C 225.5375 147.08954876166445 227.00836488272898 149.5625 227.01858862828664 150.25 C 227.0320815003856 151.1573337668387 226.00408280090164 151.30268690150086 223.26858862828664 150.7802285452859 C 221.19586488272898 150.38435424519312 215 149.56455648033395 209.5 148.95845573448773 C 204 148.3523549886415 199.05 147.43125214326287 198.5 146.91156052253518 C 197.95 146.39186890180753 194.575 145.98094201884197 191 145.99838967150063 C 187.425 146.0158373241593 182.85969225465757 146.58583732415926 180.8548716770168 147.26505633816726 C 178.85005109937603 147.94427535217528 176.82505109937605 148.84999999999994 176.3548716770168 149.27777777777766 C 175.88469225465755 149.70555555555538 174.7125 150.04305555555538 173.75 150.02777777777766 C 172.7875 150.01249999999993 171.8875 150.39378617949373 171.75 150.87508039887499 C 171.6125 151.35637461825624 168.6875 153.15637461825622 165.25 154.87508039887499 C 161.8125 156.59378617949375 157.7625 158.01249999999996 156.25 158.02777777777771 C 154.7375 158.04305555555544 153.83173981760325 157.70555555555543 154.23719959467388 157.27777777777771 C 154.64265937174454 156.84999999999997 154.19265937174453 155.9518115173417 153.23719959467388 155.28180337187044 C 152.28173981760327 154.61179522639918 150.825 154.06292562920225 150 154.06209315587728 C 149.175 154.0612606825523 142.9875 151.3469491652106 136.25 148.03028978400684 C 129.5125 144.7136304028031 123.2125 141.9847308740742 122.25 141.96606860905376 C 121.2875 141.94740634403337 122.3 141.06267546995915 124.5 140 C 126.7 138.93732453004085 129.0625 138.05259365596663 129.75 138.03393139094624 C 130.4375 138.0152691259258 131.3375 137.42536795869148 131.75 136.72303990820328 C 132.1625 136.02071185771507 134.5170768118641 133.88321185771508 136.9823929152535 131.97303990820328 C 139.44770901864297 130.06286795869147 142.16252656513814 127.825 143.01532079635393 127 C 143.8681150275697 126.175 146.3260092356329 124.15 148.4773079253833 122.5 C 150.62860661513363 120.85 153.98878906863845 117.88183971164185 155.94438004428287 115.90408824809299 C 157.8999710199273 113.92633678454412 161.975 110.27160908179805 165 107.78247113087949 C 168.025 105.29333317996091 171.85 102.58332136899192 173.5 101.76022266205949 C 175.15 100.93712395512706 177.35500381307443 98.96685165787314 178.4000084734987 97.381839779273 C 179.445013133923 95.79682790067285 181.695013133923 93.30900870498908 183.4000084734987 91.85335267775352 C 185.55444877039702 90.01397873302494 186.95752603911316 89.47152070210272 188 90.07490297910786 Z M 208 152.8021752069613 C 211.575 153.05141412641956 216.6961200739213 153.9853860809953 219.3802668309362 154.8776684393518 C 222.29074529552216 155.84518952646806 225.1161069083433 157.64101280927085 226.3802668309362 159.32692651753018 C 228.0906208754882 161.6078953080712 228.5 163.57140289805943 228.5 169.49381563570452 C 228.5 173.5307950660588 228.1697593773208 177.20867813317022 227.76613194960174 177.66688911817434 C 227.36250452188267 178.12510010317845 225.5625045218827 177.74598392809617 223.76613194960174 176.82440872910257 C 221.96975937732077 175.90283353010898 217.125 174.01012984989313 213 172.61840055084514 C 208.875 171.22667125179714 202.28922371947024 169.73068732370098 198.36494159882272 169.29399182174257 C 193.11853985000377 168.71017038007773 191.39798375220036 168.16466218791825 191.86494159882272 167.23314460289086 C 192.21422371947023 166.53637413448084 191.55444483559234 164.96137413448082 190.3987663013163 163.73314460289086 C 189.24308776704027 162.5049150713009 188.00558776704025 160.9375 187.6487663013163 160.25 C 187.24894240023997 159.47964575174237 188.34300810487863 158.2325667972122 190.5 157 C 192.425 155.9 193.775 154.55 193.5 154 C 193.21672971309698 153.43345942619393 194.84220256132426 152.85891189025799 197.25 152.6745067676095 C 199.5875 152.4954854897947 204.425 152.55293628750303 208 152.8021752069613 Z M 105.75 154.13164124624194 C 110.00442749749463 154.05439184792246 113 154.41318241413867 113 155 C 113 155.55 113.9 156.225 115 156.5 C 116.1 156.775 118.0125 158.62077494170936 119.25 160.60172209268745 C 120.91224741006333 163.26259019061524 121.17756579438189 164.3727895271623 120.26567628103703 164.85172209268745 C 119.39244171008954 165.31035273515977 119.83125181614366 166.39190646102765 121.76567628103703 168.54883518652707 C 123.26955432646666 170.22569453911697 126.62082120157305 172.70069453911697 129.21293600349568 174.04883518652707 C 132.6767961812822 175.85036446260526 134.06821080692302 177.22883623247853 134.46293600349568 179.25 C 134.79297095556376 180.9399217301749 134.32540473738402 183.1227898095923 133.25 184.91268301998892 C 132.2875 186.51465868098282 130.4875 189.43965868098283 129.25 191.41268301998892 C 128.0125 193.385707358995 127.3375 195.0075 127.75 195.01666666666665 C 128.1625 195.02583333333334 129.07 194.46333333333334 129.76666666666665 193.76666666666665 C 130.46333333333334 193.07 131.02496345271658 192.95 131.0147335986294 193.5 C 131.00450374454223 194.05 128.85950374454225 195.9521640179893 126.24806693196274 197.72703115108732 C 122.30033230640288 200.41011519254198 119.8986837128085 201.16057525955128 112 202.17922507031142 C 104.54971910626598 203.14004683485493 100.45028089373402 203.1442709162469 93 202.19880276420184 C 86.66887775377928 201.39535997648895 82.87303310612988 200.41060822538668 81.62041171841906 199.24660884497777 C 80.58663816354954 198.28597398024 78.892833527466 195.475 77.85640141601118 193 C 76.81996930455635 190.525 76.19849500306853 188.275 76.4753474127049 188 C 76.75219982234128 187.725 77.29061557618462 188.4 77.67182686569012 189.5 C 78.05303815519564 190.6 79.29532718339487 192.7076118653717 80.43246915057733 194.18358192304817 C 81.5696111177598 195.65955198072464 83.0625 196.67205198072466 83.75 196.43358192304817 C 84.4375 196.19511186537167 85.03552631578947 195.2125 85.07894736842105 194.25 C 85.12236842105264 193.2875 85.34736842105264 193.0625 85.57894736842105 193.75 C 85.81052631578947 194.4375 86.45 194.775 87 194.5 C 87.55 194.225 87.6625 193.22387969333406 87.25 192.27528820740903 C 86.63627469737479 190.86395585161014 86.86339919299942 190.68444079074283 88.5 191.28731099488067 C 89.7066184129732 191.73178974976946 91.0950361902701 191.50633261552676 92 190.71896623384936 C 92.825 190.0011725962477 95.075 188.89963281364123 97 188.27110005027941 C 98.925 187.64256728691763 103.32235188555349 186.53694273604765 106.77189307900775 185.81415660390172 C 110.22143427246202 185.09137047175577 113.03393427246202 184.1625 113.02189307900775 183.75 C 113.00985188555349 183.3375 112.1 183 111 183 C 109.9 183 109 182.55 109 182 C 109 181.45 109.7875 180.5843624700184 110.75 180.0763610444853 C 111.7125 179.56835961895223 114.525 179.04592709743395 117 178.91539988555576 C 119.475 178.7848726736776 122.5125 178.9755102036592 123.75 179.33903884107048 C 125.29713629011023 179.7935263945519 126.15619193553106 179.53142419340682 126.5 178.5 C 126.775 177.675 126.325 175.875 125.5 174.5 C 124.675 173.125 121.8625 171.0303919575095 119.25 169.8453154611322 C 115.82742281350122 168.2927735354837 111.84515437299757 167.5650917805427 105 167.24140636689813 L 95.5 166.79218181153183 L 98.75 164.8960909057659 C 100.5375 163.85324090759465 102 162.55 102 162 C 102 161.45 99.75 160.775 97 160.5 C 94.25 160.225 91.6625 159.49968847050627 91.25 158.888196601125 C 90.8375 158.27670473174376 91.175 157.38359548027645 92 156.90350937564207 C 92.825 156.4234232710077 93.05 155.96449623969255 92.5 155.8836715282751 C 91.95 155.80284681685768 93.075 155.40519462913386 95 155 C 96.925 154.59480537086614 101.7625 154.20404393167502 105.75 154.13164124624194 Z M 168.46609402538263 164.75 C 170.37244573934308 166.8125 172.20981786685627 169.625 172.54914319763415 171 C 172.88846852841203 172.375 173.69122621698986 174.08021519901502 174.33304917225152 174.78936710892225 C 174.97487212751318 175.49851901882948 176.2875 175.8360190188295 177.25 175.53936710892225 C 178.51312236964074 175.15006044564902 179 175.55643157755344 179 177 C 179 178.25058465630926 179.8430922616521 179.19832407185277 181.25 179.52927678495627 C 182.4875 179.8203790166822 184.7375 181.39537901668223 186.25 183.02927678495627 C 188.00618506781882 184.92641851254993 189.99381493218118 186.00397730658312 191.75 186.0110056638811 C 193.2625 186.01705877901568 196.3 186.26650695200712 198.5 186.56533493719536 L 202.5 187.10865854662853 L 199.75 185.55432927331427 C 198.2375 184.69944817299142 197 183.55 197 183 C 197 182.45 200.7125 181.71842574057285 205.25 181.37427942349524 C 209.7875 181.03013310641762 216.53639360818462 180.69263310641762 220.2475413515214 180.62427942349524 L 226.99508270304278 180.5 L 226.98777243581742 183 C 226.98375178884345 184.375 225.9236387745472 187.75 224.63196573738128 190.5 C 223.34029270021537 193.25 221.43218871228217 196.22377821774177 220.39173465308528 197.10839603942617 C 219.35128059388836 197.99301386111057 216.925 199.2604400531954 215 199.92489868850362 C 213.075 200.5893573238118 206.55 201.40246865977622 200.5 201.7318127684245 C 191.8642823560201 202.2019156990022 187.88798930271358 201.95110543504313 182 200.56489930881807 C 176.85650676599312 199.35396948802313 173.6452134477504 197.9666750653299 171.7794904583394 196.149589189471 C 169.92909779226656 194.34743399419443 168.87003497498796 192.0607380234532 168.468222075367 189 C 168.1433047126455 186.525 166.55503400639273 181.6875 164.93873161702757 178.25 C 163.3224292276624 174.8125 161.99652058730547 170.5375 161.99226797178994 168.75 C 161.98801535627442 166.9625 162.6630153562744 164.4875 163.49226797178994 163.25 L 165 161 L 168.46609402538263 164.75 Z M 309.75 170.36829149974614 C 310.1625 170.5708518246065 311.110923771948 172.0333518246065 311.8576083821067 173.61829149974614 C 313.04690495426814 176.14273528374963 312.9849166032224 177.0237025918544 311.3576083821067 180.72420166869827 C 310.33592377194805 183.04751258648233 309.1625 184.96001258648232 308.75 184.97420166869827 C 308.3375 184.98839075091422 308 183.875 308 182.5 C 308 181.125 308.45 179.775 309 179.5 C 309.56140350877195 179.21929824561403 309.780701754386 177.02631578947367 309.5 174.5 C 309.225 172.025 309.3375 170.16573117488576 309.75 170.36829149974614 Z M 73.81541021768275 194.25 C 74.46693459795723 194.6625 75.675 196.35 76.5 198 C 77.47383124306533 199.94766248613067 79.66620106362646 201.74222733530877 82.75 203.1159390182139 C 85.86091894597976 204.5017316035401 90.43309241245728 205.40555794859944 96 205.73519639325457 C 100.675 206.01202148950927 108.325 205.7440809184664 113 205.13977290204815 C 117.675 204.5354648856299 122.625 203.77261156677224 124 203.4445433045867 L 126.5 202.8480555551584 L 124.36011386145441 204.6740277775792 C 123.18317648525435 205.67831249991065 121.72067648525434 207.7375 121.11011386145441 209.25 C 120.29104230292964 211.27902320577468 120.29858423378543 212.5898901043662 121.13888082041838 214.25 C 121.98255868375377 215.9167900262007 121.99075847850604 217.92562438039832 121.17051529002877 222 C 120.56152979708439 225.025 119.82403342789611 230.3125 119.5316344696104 233.75 C 119.12654901738341 238.51226471596928 119.35705646816737 240.35705646816737 120.5 241.5 C 121.325 242.325 122 243.9 122 245 C 122 246.33333333333334 121.33333333333333 247 120 247 C 118.9 247 116.9875 247.5625 115.75 248.25 C 114.5125 248.9375 113.275 249.74816932481326 113 250.05148738847393 C 112.725 250.3548054521346 110.475 252.0620831930483 108 253.84543792383772 C 104.62619593760517 256.27642355431385 102.81176914924129 256.9517688744643 100.75 256.5439505353638 C 98.99488808424776 256.19678905674675 98.00602962475303 255.36688940093325 98.01666666666671 254.25 C 98.0301169590644 252.83771929824562 97.78888888888895 252.74444444444444 96.76666666666671 253.76666666666662 C 96.07000000000002 254.46333333333325 94.9375 255.02583333333325 94.25 255.01666666666662 C 93.5625 255.0075 93.01501041167333 254.2125 93.03335647038517 253.25 C 93.05170252909703 252.2875 91.70170252909703 250.0375 90.03335647038517 248.25 C 88.36501041167332 246.4625 87.11709705090729 244.2125 87.26021566868286 243.25 C 87.4046447670815 242.27868676787614 88.51705443547598 241.38875903316054 89.76021566868286 241.25 C 91.4159856220878 241.06518645230105 92 240.34813547698948 92 238.5 C 92 236.36666666666667 91.63333333333334 236.07333333333332 89.5 236.5 C 88.125 236.775 86.775 236.55 86.5 236 C 86.225 235.45 85.2125 235.1125 84.25 235.25 C 83.04040227618628 235.42279967483054 82.41295290221619 234.72799674830532 82.21811291729432 233 C 82.0630750218062 231.625 82.40057502180619 229.9375 82.96811291729432 229.25 C 83.53565081278245 228.5625 83.775 226.875 83.5 225.5 C 83.225 224.125 82.775 221.875 82.5 220.5 C 82.225 219.125 81.4375 217.98618574397008 80.75 217.96930165326683 C 80.0625 217.95241756256357 78.375 216.62263588925325 77 215.01423126813273 L 74.5 212.08985922973181 L 71.75 213.5449296148659 L 69 215 L 69.25 208.43653667674172 C 69.45243869606462 203.12174084942848 69.93176804488485 201.4570952116899 71.76953431234458 199.68653667674172 C 73.36387888552298 198.15049782257816 73.82959068851987 196.9049971084432 73.33494453002734 195.5 C 72.83732382611542 194.0865539677323 72.97823335384217 193.71995773789962 73.81541021768275 194.25 Z M 19 211.5 C 19.55 211.775 20.007642456352546 212.7875 20.016983236338987 213.75 C 20.02632401632543 214.7125 19.317924975918718 216.4 18.442763146546298 217.5 L 16.851559820414618 219.5 L 17.412125226914867 217 C 17.720436200490003 215.625 17.97883524089671 213.7125 17.986345316707556 212.75 C 17.9938553925184 211.7875 18.45 211.225 19 211.5 Z M 179.5 216.9540624628525 C 178.87373478173487 216.95982362221994 178.78900281406334 218.37163231801594 179.2732831627867 220.73163084769058 C 179.6985889023194 222.80423388146076 180.8235889023194 225.0256930697242 181.7732831627867 225.66820682160937 C 182.722977423254 226.31072057349456 183.725 226.658638937885 184 226.44135874247706 C 184.275 226.22407854706913 183.94107950801856 225.4733854773449 183.25795446226348 224.7731519208677 C 182.5748294165084 224.07291836439046 182.3498294165084 223.15754312858442 182.75795446226348 222.73898473018758 C 183.16607950801856 222.32042633179074 182.825 220.84552055861363 182 219.4614163453495 C 181.175 218.07731213208538 180.05 216.94900288496174 179.5 216.9540624628525 Z " fill="#222222"></path></svg>
